<svg width="128" height="24" fill="none" xmlns="http://www.w3.org/2000/svg">
  <path d="M63.782 5.266c-1.905 0-3.505.649-4.758 1.924-1.249 1.26-1.884 2.836-1.884 4.686 0 1.83.635 3.406 1.884 4.683 1.251 1.282 2.853 1.929 4.758 1.929 1.892 0 3.488-.647 4.741-1.929 1.264-1.288 1.9-2.863 1.9-4.683 0-1.837-.638-3.415-1.9-4.684-1.253-1.28-2.849-1.926-4.741-1.926zm2.634 9.406c-.712.743-1.572 1.104-2.634 1.104-1.058 0-1.95-.371-2.651-1.104-.692-.72-1.045-1.661-1.045-2.796 0-1.134.353-2.075 1.045-2.795.702-.733 1.596-1.104 2.651-1.104 1.062 0 1.922.359 2.634 1.104.705.732 1.064 1.674 1.064 2.795 0 1.12-.36 2.062-1.064 2.796zM105.853 10.448a37.337 37.337 0 00-1.366-.39 5.409 5.409 0 01-.988-.363c-.4-.19-.57-.4-.57-.708 0-.263 0-1.064 1.964-1.064 1.398 0 2.733.388 3.969 1.145 0 0 .046.025.105.065.086.056.139-.015.139-.05V6.474c0-.121-.084-.16-.084-.16a8.625 8.625 0 00-4.165-1.048c-1.489 0-2.681.331-3.543.987-.883.655-1.333 1.57-1.333 2.715 0 1.701 1.049 2.688 2.515 3.342.344.152.66.248.847.304l.933.301.995.3.425.143c.361.125.471.173.702.313.349.158.549.482.549.885 0 .943-1.211 1.275-2.25 1.275a7.37 7.37 0 01-2.515-.466c-.843-.323-1.505-.697-2.024-1.141 0 0-.068-.063-.143-.123-.078-.059-.124-.021-.124.06v2.805c0 .134.069.165.069.165 1.306.904 2.935 1.357 4.844 1.357 1.476 0 2.67-.345 3.646-1.056.98-.714 1.476-1.708 1.476-2.947 0-2.15-1.594-3.267-4.073-4.037zM112.18 18.115c0 .069.056.125.126.125h2.62a.126.126 0 00.126-.125V5.64a.126.126 0 00-.126-.125h-2.62a.126.126 0 00-.126.125v12.475zM121 15.634a.182.182 0 01-.181-.18V5.692a.18.18 0 00-.181-.18h-2.529a.182.182 0 00-.181.18V18.06c0 .098.082.18.181.18h8.868a.18.18 0 00.181-.18v-2.246a.182.182 0 00-.181-.18H121zM82.23 10.723h-3.38c-.077 0-.121.061-.121.13l-.003 2.315c0 .08.05.127.13.127h2.187c.097 0 .13.046.13.117v1.58c0 .091-.037.125-.056.14-.547.459-1.304.678-2.3.678-1.093 0-2.025-.353-2.765-1.054-.736-.7-1.11-1.647-1.11-2.826 0-1.21.374-2.148 1.148-2.862.776-.734 1.753-1.091 2.996-1.091a6.22 6.22 0 012.533.54c.278.121.553.263.83.426.043.025.14.025.165-.056.143-.472.622-2.066.645-2.146.028-.094-.019-.16-.048-.18a7.856 7.856 0 00-4.306-1.295c-1.991 0-3.656.622-4.95 1.85-1.299 1.239-1.96 2.84-1.96 4.76 0 1.903.661 3.506 1.96 4.758 1.294 1.23 2.93 1.852 4.86 1.852a7.923 7.923 0 003.008-.579c.888-.365 1.624-.826 2.16-1.396a.251.251 0 00.082-.204v-5.448c0-.081-.04-.136-.126-.136h-1.71zM53.154 13.451c1.427-.866 2.252-1.995 2.252-3.498 0-2.8-2.326-4.443-4.485-4.443h-5.664c-.086 0-.13.044-.13.13v12.47c0 .09.056.13.13.13h2.733c.082 0 .128-.034.128-.13V8.348c0-.085.06-.131.13-.131h2.532c.976 0 1.632.88 1.632 1.726 0 .866-.64 1.699-1.632 1.699h-1.776c-.074 0-.129.048-.129.131v.424c0 .098 0 .117.06.192.045.06 3.775 4.848 4.452 5.719.068.085.11.133.238.133h3.08c.105 0 .111-.073.067-.13l-3.618-4.66zM41.205 7.29c-1.297-1.18-2.998-1.778-5.054-1.778h-4.824a.126.126 0 00-.126.125V18.11c0 .069.057.125.126.125h4.823c2.067 0 3.768-.59 5.055-1.76 1.303-1.185 1.962-2.732 1.962-4.604.002-1.853-.659-3.398-1.962-4.581zm-5.267 8.344h-1.606c-.086 0-.128-.027-.128-.127V8.242c0-.082.037-.123.13-.123h1.602c2.712 0 4.266 1.369 4.266 3.756.002 2.388-1.552 3.76-4.264 3.76zM98.822 18.076l-.004-.006-2.556-7.44-.002-.005-2.439-7.144a.112.112 0 00-.106-.075h-2.733a.119.119 0 00-.112.076l-2.437 7.144-.001.003-2.558 7.448c-.03.088.017.18.108.18h2.73a.126.126 0 00.118-.086l.711-2.174h3.708l.714 2.174a.125.125 0 00.119.086h2.73a.12.12 0 00.108-.178zm-5.49-4.046c.183-.576 1.108-3.385 1.525-4.659.03-.09.157-.09.188 0 .419 1.275 1.343 4.089 1.526 4.659.021.063-.038.13-.104.13h-3.031c-.068 0-.127-.065-.104-.13zM70.877 7.292c-1.297-1.18-2.997-1.778-5.054-1.778h-4.824a.126.126 0 00-.126.125V18.11c0 .069.056.125.126.125h4.823c2.067 0 3.768-.59 5.056-1.76 1.303-1.185 1.962-2.732 1.962-4.604 0-1.853-.659-3.398-1.961-4.579zm-5.267 8.344h-1.607c-.085 0-.128-.027-.128-.127V8.242c0-.082.037-.123.13-.123h1.604c2.711 0 4.266 1.369 4.266 3.756 0 2.388-1.553 3.76-4.265 3.76zM29.712 18.115c0 .069.056.125.125.125h2.574a.126.126 0 00.127-.125V10.38c.58-.677 1.162-1.36 1.742-2.037l3.43-4.018c.035-.043.043-.068.043-.085 0-.1-.072-.12-.163-.12h-2.744a.166.166 0 00-.13.065l-3.116 3.771-3.111-3.77a.161.161 0 00-.129-.065h-2.725c-.116 0-.167.088-.1.159l4.977 5.755-3.697 4.297v2.004zM14.023 7.488c1.28 0 2.278-.41 2.966-1.22.698-.82 1.046-1.882 1.046-3.14V.125A.126.126 0 0017.909 0H14.83a.126.126 0 00-.126.125V3.03c0 .664-.14 1.142-.415 1.437-.269.293-.683.444-1.217.444H9.98c-.537 0-.947-.151-1.217-.444-.275-.295-.417-.773-.417-1.437V.125A.126.126 0 008.22 0H5.147a.126.126 0 00-.125.125v3.003c0 1.258.348 2.32 1.046 3.14.688.81 1.686 1.22 2.966 1.22h1.219zM4.505 4.317H.245A.244.244 0 010 4.562v2.888c0 .136.11.247.245.247h4.26a.244.244 0 00.244-.247V4.562a.244.244 0 00-.244-.245z" fill="#007BFF"/>
</svg>
